<svg width="24" height="22" viewBox="0 0 24 22" fill="none" xmlns="http://www.w3.org/2000/svg">
<path fill-rule="evenodd" clip-rule="evenodd" d="M0 2.73477C0 1.34204 1.29101 0.211914 2.88202 0.211914C4.47203 0.211914 5.76304 1.34204 5.76404 2.73477C5.76404 4.1275 4.47303 5.28125 2.88202 5.28125C1.29101 5.28125 0 4.1275 0 2.73477ZM23.9939 21.2192V21.2184H23.9999V13.5138C23.9999 9.74472 23.0729 6.84131 18.0389 6.84131C15.6189 6.84131 13.9949 8.00372 13.3319 9.10574H13.2619V7.19318H8.48889V21.2184H13.4589V14.2736C13.4589 12.4451 13.8549 10.6769 16.4419 10.6769C18.9909 10.6769 19.0289 12.7637 19.0289 14.3909V21.2192H23.9939ZM0.39624 7.19434H5.37219V21.2192H0.39624V7.19434Z" fill="white"/>
</svg>
