<svg width="20" height="23" viewBox="0 0 20 23" fill="none" xmlns="http://www.w3.org/2000/svg">
<path d="M10.3349 0.211914C3.58685 0.212826 0 4.05596 0 8.24649C0 10.1895 1.2216 12.6139 3.1776 13.3825C3.73558 13.6059 3.66173 13.3333 4.14175 11.7012C4.1797 11.5654 4.16021 11.4477 4.03713 11.321C1.24109 8.44617 3.49146 2.53603 9.93589 2.53603C19.2625 2.53603 17.5199 14.008 11.5585 14.008C10.0221 14.008 8.87738 12.9358 9.23945 11.6091C9.67845 10.029 10.538 8.33037 10.538 7.19156C10.538 4.32129 5.72747 4.74709 5.72747 8.55011C5.72747 9.72539 6.19519 10.5186 6.19519 10.5186C6.19519 10.5186 4.64742 16.0768 4.36022 17.1153C3.87404 18.8732 4.42587 21.7189 4.47408 21.9642C4.50382 22.0991 4.67409 22.142 4.76948 22.0307C4.9223 21.8529 6.79317 19.4805 7.3173 17.7654C7.50808 17.1409 8.29068 14.6061 8.29068 14.6061C8.80661 15.434 10.2939 16.127 11.8786 16.127C16.5926 16.127 20 12.4434 20 7.87266C19.9836 3.49066 15.7649 0.211914 10.3349 0.211914V0.211914Z" fill="white"/>
</svg>
